<svg xmlns="http://www.w3.org/2000/svg"  style="color:white" version="1.1" xmlns:xlink="http://www.w3.org/1999/xlink" viewBox="0 0 40 40" width="30" height="30">
                                    <g transform="matrix(1.6666666666666667,0,0,1.6666666666666667,0,0)">
                                        <path d="M24,4.75c0-1.657-1.343-3-3-3H3c-1.657,0-3,1.343-3,3v14.5c0,1.657,1.343,3,3,3h18c1.657,0,3-1.343,3-3V4.75z M21.75,6.75 C21.888,6.75,22,6.862,22,7v5.5c0,0.138-0.112,0.25-0.25,0.25h-12c-0.138,0-0.25-0.112-0.25-0.25V7c0-0.138,0.112-0.25,0.25-0.25 H21.75z M9.65,3.75c0.258-0.467,0.845-0.637,1.312-0.38c0.16,0.088,0.292,0.22,0.38,0.38c0.096,0.149,0.149,0.322,0.154,0.5 c-0.005,0.178-0.058,0.351-0.154,0.5c-0.258,0.467-0.845,0.637-1.312,0.38C9.87,5.042,9.738,4.91,9.65,4.75 c-0.096-0.149-0.149-0.322-0.154-0.5c0.006-0.178,0.06-0.351,0.158-0.5H9.65z M6.15,3.75c0.258-0.467,0.845-0.637,1.312-0.38 c0.16,0.088,0.292,0.22,0.38,0.38C7.94,3.899,7.994,4.072,8,4.25c-0.005,0.178-0.058,0.351-0.154,0.5 C7.588,5.217,7.001,5.387,6.534,5.13c-0.16-0.088-0.292-0.22-0.38-0.38C6.058,4.601,6.005,4.428,6,4.25 c0.005-0.178,0.058-0.351,0.154-0.5H6.15z M2.588,3.842C2.749,3.482,3.106,3.25,3.5,3.25c0.351,0.004,0.673,0.195,0.846,0.5 C4.442,3.899,4.495,4.072,4.5,4.25c-0.005,0.178-0.058,0.351-0.154,0.5C4.088,5.217,3.501,5.387,3.034,5.13 c-0.16-0.088-0.292-0.22-0.38-0.38C2.558,4.601,2.505,4.428,2.5,4.25c0.001-0.141,0.032-0.28,0.092-0.408H2.588z M8,20 c0,0.138-0.112,0.25-0.25,0.25H3c-0.552,0-1-0.448-1-1V7c0-0.138,0.112-0.25,0.25-0.25h5.5C7.888,6.75,8,6.862,8,7V20z M22,19.25 c0,0.552-0.448,1-1,1H9.75c-0.138,0-0.25-0.112-0.25-0.25v-5.5c0-0.138,0.112-0.25,0.25-0.25h12c0.138,0,0.25,0.112,0.25,0.25 V19.25z" stroke="none" fill="currentColor" stroke-width="0" stroke-linecap="round" stroke-linejoin="round"></path>
                                    </g>
                                </svg>