<svg xmlns="http://www.w3.org/2000/svg"  style="color:white" version="1.1" xmlns:xlink="http://www.w3.org/1999/xlink" viewBox="0 0 40 40" width="30" height="30">
                                    <g transform="matrix(1.6666666666666667,0,0,1.6666666666666667,0,0)">
                                        <path d="M17.464,11c-3.59,0-6.5,2.91-6.5,6.5s2.91,6.5,6.5,6.5s6.5-2.91,6.5-6.5C23.96,13.912,21.052,11.004,17.464,11z M19.964,18.25h-1.5c-0.138,0-0.25,0.112-0.25,0.25V20c0,0.414-0.336,0.75-0.75,0.75s-0.75-0.336-0.75-0.75v-1.5 c0-0.138-0.112-0.25-0.25-0.25h-1.5c-0.414,0-0.75-0.336-0.75-0.75s0.336-0.75,0.75-0.75h1.5c0.138,0,0.25-0.112,0.25-0.25V15 c0-0.414,0.336-0.75,0.75-0.75s0.75,0.336,0.75,0.75v1.5c0,0.138,0.112,0.25,0.25,0.25h1.5c0.414,0,0.75,0.336,0.75,0.75 S20.378,18.25,19.964,18.25z M12.786,8.5c0-0.414-0.336-0.75-0.75-0.75h-6c-0.414,0-0.75,0.336-0.75,0.75s0.336,0.75,0.75,0.75h6 C12.45,9.25,12.786,8.914,12.786,8.5z M6.036,14.749c-0.414,0-0.75,0.336-0.75,0.75c0,0.414,0.336,0.75,0.75,0.75h3.405 c0.117,0,0.217-0.085,0.237-0.2c0.06-0.323,0.139-0.641,0.238-0.954c0.036-0.116-0.006-0.345-0.333-0.345L6.036,14.749z M9.722,19.194c-0.021-0.115-0.121-0.199-0.238-0.2H3.536c-0.276,0-0.5-0.224-0.5-0.5V5.5c0-0.276,0.224-0.5,0.5-0.5h11 c0.276,0,0.5,0.224,0.5,0.5v4.08c-0.002,0.136,0.107,0.249,0.243,0.251c0.019,0,0.038-0.002,0.057-0.006 c0.814-0.154,1.637-0.252,2.464-0.293c0.132-0.008,0.235-0.118,0.234-0.25V3.5c0-0.828-0.672-1.5-1.5-1.5h-4 c-0.086,0-0.165-0.046-0.208-0.121C11.25,0.06,8.903-0.543,7.084,0.533C6.529,0.861,6.066,1.324,5.738,1.879 C5.696,1.953,5.619,1.999,5.534,2h-4c-0.828,0-1.5,0.672-1.5,1.5v17c0,0.828,0.672,1.5,1.5,1.5h8.94 c0.136,0,0.246-0.11,0.246-0.246c0-0.047-0.014-0.093-0.039-0.133C10.23,20.87,9.906,20.05,9.722,19.194z M11.186,12.654 c0.327-0.427,0.695-0.82,1.1-1.174c0.09-0.079-0.01-0.231-0.245-0.231h-6c-0.414,0-0.75,0.336-0.75,0.75s0.336,0.75,0.75,0.75H11 C11.073,12.747,11.142,12.712,11.186,12.654z" stroke="none" fill="currentColor" stroke-width="0" stroke-linecap="round" stroke-linejoin="round"></path>
                                    </g>
                                </svg>