<svg xmlns="http://www.w3.org/2000/svg"  style="color:white" version="1.1" xmlns:xlink="http://www.w3.org/1999/xlink" viewBox="0 0 40 40" width="30" height="30">
                                    <g transform="matrix(1.6666666666666667,0,0,1.6666666666666667,0,0)">
                                        <path d="M23,14.5H1c-0.552,0-1,0.448-1,1V16c0,0.684,0.462,1.282,1.125,1.453C1.346,17.51,1.5,17.709,1.5,17.937V23 c0,0.552,0.448,1,1,1s1-0.448,1-1v-1c0-0.276,0.224-0.5,0.5-0.5h16c0.276,0,0.5,0.224,0.5,0.5v1c0,0.552,0.448,1,1,1s1-0.448,1-1 v-5.063c0-0.228,0.154-0.427,0.375-0.484C23.538,17.282,24,16.684,24,16v-0.5C24,14.948,23.552,14.5,23,14.5z M20.5,19 c0,0.276-0.224,0.5-0.5,0.5H4c-0.276,0-0.5-0.224-0.5-0.5v-1c0-0.276,0.224-0.5,0.5-0.5h16c0.276,0,0.5,0.224,0.5,0.5V19z M7.522,5.717l0.75,0.385c0.143,0.073,0.313,0.073,0.456,0l0.75-0.385C9.645,5.631,9.75,5.46,9.75,5.272V4.334 c0-0.189-0.107-0.362-0.276-0.447l-0.75-0.375c-0.141-0.071-0.307-0.071-0.448,0l-0.75,0.375C7.357,3.972,7.25,4.145,7.25,4.334 v0.938C7.25,5.46,7.355,5.631,7.522,5.717z M14.522,9.217l0.75,0.385c0.143,0.073,0.313,0.073,0.456,0l0.75-0.385 c0.167-0.086,0.272-0.257,0.272-0.445V7.834c0-0.189-0.107-0.362-0.276-0.447l-0.75-0.375c-0.141-0.071-0.307-0.071-0.448,0 l-0.75,0.375c-0.169,0.085-0.276,0.258-0.276,0.447v0.938C14.25,8.96,14.355,9.131,14.522,9.217z M2.5,13h19 c0.276,0,0.5-0.224,0.5-0.5v-11C22,0.672,21.328,0,20.5,0h-17C2.672,0,2,0.672,2,1.5v11C2,12.776,2.224,13,2.5,13z M5.75,3.871 C5.749,3.397,6.017,2.964,6.441,2.753L7.941,2c0.352-0.175,0.766-0.175,1.118,0l1.5,0.75c0.424,0.211,0.692,0.644,0.691,1.118v1.4 c0,0.188,0.106,0.36,0.273,0.445l1.275,0.649c0.162,0.082,0.355,0.07,0.505-0.031c0.107-0.071,0.118-0.068,1.171-0.6 c0.169-0.085,0.276-0.258,0.276-0.447V3.5c0-0.414,0.336-0.75,0.75-0.75c0.414,0,0.75,0.336,0.75,0.75v1.79 c0,0.189,0.107,0.362,0.276,0.447l1.033,0.516c0.424,0.211,0.692,0.644,0.691,1.118V9.23c0.001,0.469-0.262,0.899-0.68,1.112 l-1.5,0.77c-0.358,0.184-0.784,0.184-1.142,0l-1.5-0.77c-0.417-0.213-0.68-0.643-0.678-1.112v-0.9c0-0.188-0.106-0.36-0.273-0.445 l-1.748-0.889c-0.143-0.073-0.312-0.073-0.455,0L9.522,7.383C9.355,7.468,9.25,7.64,9.25,7.827v2.237c0,0.414-0.336,0.75-0.75,0.75 s-0.75-0.336-0.75-0.75V7.825c0-0.187-0.105-0.359-0.272-0.444L6.429,6.842C6.011,6.629,5.749,6.199,5.75,5.73V3.871z" stroke="none" fill="currentColor" stroke-width="0" stroke-linecap="round" stroke-linejoin="round"></path>
                                    </g>
                                </svg>